<mxfile host="app.diagrams.net" agent="Mozilla/5.0 (Windows NT 10.0; Win64; x64) AppleWebKit/537.36 (KHTML, like Gecko) Chrome/134.0.0.0 Safari/537.36" version="26.2.1">
  <diagram name="Page-1" id="Wnb74RkyENqdzMgv-6X-">
    <mxGraphModel dx="1898" dy="1249" grid="1" gridSize="10" guides="1" tooltips="1" connect="1" arrows="1" fold="1" page="1" pageScale="1" pageWidth="850" pageHeight="1100" math="0" shadow="0">
      <root>
        <mxCell id="0" />
        <mxCell id="1" parent="0" />
        <mxCell id="XptOpZLXdy9qe_FooWXW-144" value="" style="ellipse;whiteSpace=wrap;html=1;" vertex="1" parent="1">
          <mxGeometry x="390" y="480" width="70" height="70" as="geometry" />
        </mxCell>
        <mxCell id="XptOpZLXdy9qe_FooWXW-104" value="" style="ellipse;whiteSpace=wrap;html=1;" vertex="1" parent="1">
          <mxGeometry x="440" y="630" width="70" height="70" as="geometry" />
        </mxCell>
        <mxCell id="XptOpZLXdy9qe_FooWXW-100" value="" style="ellipse;whiteSpace=wrap;html=1;" vertex="1" parent="1">
          <mxGeometry x="265" y="550" width="70" height="70" as="geometry" />
        </mxCell>
        <mxCell id="XptOpZLXdy9qe_FooWXW-33" value="" style="ellipse;whiteSpace=wrap;html=1;" vertex="1" parent="1">
          <mxGeometry x="105" y="210" width="70" height="70" as="geometry" />
        </mxCell>
        <mxCell id="XptOpZLXdy9qe_FooWXW-24" value="" style="ellipse;whiteSpace=wrap;html=1;" vertex="1" parent="1">
          <mxGeometry x="102.5" y="290" width="70" height="70" as="geometry" />
        </mxCell>
        <mxCell id="XptOpZLXdy9qe_FooWXW-23" value="" style="ellipse;whiteSpace=wrap;html=1;" vertex="1" parent="1">
          <mxGeometry x="505" y="130" width="70" height="70" as="geometry" />
        </mxCell>
        <mxCell id="XptOpZLXdy9qe_FooWXW-22" value="" style="ellipse;whiteSpace=wrap;html=1;" vertex="1" parent="1">
          <mxGeometry x="310" y="60" width="70" height="70" as="geometry" />
        </mxCell>
        <mxCell id="XptOpZLXdy9qe_FooWXW-9" style="edgeStyle=orthogonalEdgeStyle;rounded=0;orthogonalLoop=1;jettySize=auto;html=1;" edge="1" parent="1" source="XptOpZLXdy9qe_FooWXW-1" target="XptOpZLXdy9qe_FooWXW-2">
          <mxGeometry relative="1" as="geometry" />
        </mxCell>
        <mxCell id="XptOpZLXdy9qe_FooWXW-14" style="edgeStyle=orthogonalEdgeStyle;rounded=0;orthogonalLoop=1;jettySize=auto;html=1;entryX=0;entryY=0.5;entryDx=0;entryDy=0;" edge="1" parent="1" source="XptOpZLXdy9qe_FooWXW-1" target="XptOpZLXdy9qe_FooWXW-7">
          <mxGeometry relative="1" as="geometry">
            <Array as="points">
              <mxPoint x="50" y="95" />
              <mxPoint x="50" y="245" />
            </Array>
          </mxGeometry>
        </mxCell>
        <mxCell id="XptOpZLXdy9qe_FooWXW-1" value="0" style="ellipse;whiteSpace=wrap;html=1;" vertex="1" parent="1">
          <mxGeometry x="60" y="70" width="60" height="50" as="geometry" />
        </mxCell>
        <mxCell id="XptOpZLXdy9qe_FooWXW-10" style="edgeStyle=orthogonalEdgeStyle;rounded=0;orthogonalLoop=1;jettySize=auto;html=1;" edge="1" parent="1" source="XptOpZLXdy9qe_FooWXW-2" target="XptOpZLXdy9qe_FooWXW-5">
          <mxGeometry relative="1" as="geometry" />
        </mxCell>
        <mxCell id="XptOpZLXdy9qe_FooWXW-11" style="edgeStyle=orthogonalEdgeStyle;rounded=0;orthogonalLoop=1;jettySize=auto;html=1;entryX=0;entryY=0.5;entryDx=0;entryDy=0;" edge="1" parent="1" source="XptOpZLXdy9qe_FooWXW-2" target="XptOpZLXdy9qe_FooWXW-3">
          <mxGeometry relative="1" as="geometry" />
        </mxCell>
        <mxCell id="XptOpZLXdy9qe_FooWXW-2" value="1" style="ellipse;whiteSpace=wrap;html=1;" vertex="1" parent="1">
          <mxGeometry x="200" y="70" width="60" height="50" as="geometry" />
        </mxCell>
        <mxCell id="XptOpZLXdy9qe_FooWXW-12" style="edgeStyle=orthogonalEdgeStyle;rounded=0;orthogonalLoop=1;jettySize=auto;html=1;entryX=0;entryY=0.5;entryDx=0;entryDy=0;" edge="1" parent="1" source="XptOpZLXdy9qe_FooWXW-3" target="XptOpZLXdy9qe_FooWXW-4">
          <mxGeometry relative="1" as="geometry" />
        </mxCell>
        <mxCell id="XptOpZLXdy9qe_FooWXW-3" value="2" style="ellipse;whiteSpace=wrap;html=1;" vertex="1" parent="1">
          <mxGeometry x="260" y="140" width="60" height="50" as="geometry" />
        </mxCell>
        <mxCell id="XptOpZLXdy9qe_FooWXW-13" style="edgeStyle=orthogonalEdgeStyle;rounded=0;orthogonalLoop=1;jettySize=auto;html=1;entryX=0;entryY=0.5;entryDx=0;entryDy=0;" edge="1" parent="1" source="XptOpZLXdy9qe_FooWXW-4" target="XptOpZLXdy9qe_FooWXW-6">
          <mxGeometry relative="1" as="geometry" />
        </mxCell>
        <mxCell id="XptOpZLXdy9qe_FooWXW-4" value="3" style="ellipse;whiteSpace=wrap;html=1;" vertex="1" parent="1">
          <mxGeometry x="380" y="140" width="60" height="50" as="geometry" />
        </mxCell>
        <mxCell id="XptOpZLXdy9qe_FooWXW-5" value="8" style="ellipse;whiteSpace=wrap;html=1;" vertex="1" parent="1">
          <mxGeometry x="315" y="70" width="60" height="50" as="geometry" />
        </mxCell>
        <mxCell id="XptOpZLXdy9qe_FooWXW-6" value="9" style="ellipse;whiteSpace=wrap;html=1;" vertex="1" parent="1">
          <mxGeometry x="510" y="140" width="60" height="50" as="geometry" />
        </mxCell>
        <mxCell id="XptOpZLXdy9qe_FooWXW-7" value="10" style="ellipse;whiteSpace=wrap;html=1;" vertex="1" parent="1">
          <mxGeometry x="110" y="220" width="60" height="50" as="geometry" />
        </mxCell>
        <mxCell id="XptOpZLXdy9qe_FooWXW-16" value="11" style="ellipse;whiteSpace=wrap;html=1;" vertex="1" parent="1">
          <mxGeometry x="107.5" y="300" width="60" height="50" as="geometry" />
        </mxCell>
        <mxCell id="XptOpZLXdy9qe_FooWXW-25" value="" style="ellipse;whiteSpace=wrap;html=1;" vertex="1" parent="1">
          <mxGeometry x="102.5" y="370" width="70" height="70" as="geometry" />
        </mxCell>
        <mxCell id="XptOpZLXdy9qe_FooWXW-26" value="12" style="ellipse;whiteSpace=wrap;html=1;" vertex="1" parent="1">
          <mxGeometry x="107.5" y="380" width="60" height="50" as="geometry" />
        </mxCell>
        <mxCell id="XptOpZLXdy9qe_FooWXW-28" value="4" style="ellipse;whiteSpace=wrap;html=1;" vertex="1" parent="1">
          <mxGeometry x="112.5" y="460" width="60" height="50" as="geometry" />
        </mxCell>
        <mxCell id="XptOpZLXdy9qe_FooWXW-29" value="" style="ellipse;whiteSpace=wrap;html=1;" vertex="1" parent="1">
          <mxGeometry x="107.5" y="530" width="70" height="70" as="geometry" />
        </mxCell>
        <mxCell id="XptOpZLXdy9qe_FooWXW-30" value="15" style="ellipse;whiteSpace=wrap;html=1;" vertex="1" parent="1">
          <mxGeometry x="112.5" y="540" width="60" height="50" as="geometry" />
        </mxCell>
        <mxCell id="XptOpZLXdy9qe_FooWXW-32" value="6" style="ellipse;whiteSpace=wrap;html=1;" vertex="1" parent="1">
          <mxGeometry x="112.5" y="620" width="60" height="50" as="geometry" />
        </mxCell>
        <mxCell id="XptOpZLXdy9qe_FooWXW-36" value="" style="ellipse;whiteSpace=wrap;html=1;" vertex="1" parent="1">
          <mxGeometry x="107.5" y="690" width="70" height="70" as="geometry" />
        </mxCell>
        <mxCell id="XptOpZLXdy9qe_FooWXW-37" value="18" style="ellipse;whiteSpace=wrap;html=1;" vertex="1" parent="1">
          <mxGeometry x="112.5" y="700" width="60" height="50" as="geometry" />
        </mxCell>
        <mxCell id="XptOpZLXdy9qe_FooWXW-38" value="" style="ellipse;whiteSpace=wrap;html=1;" vertex="1" parent="1">
          <mxGeometry x="107.5" y="770" width="70" height="70" as="geometry" />
        </mxCell>
        <mxCell id="XptOpZLXdy9qe_FooWXW-39" value="19" style="ellipse;whiteSpace=wrap;html=1;" vertex="1" parent="1">
          <mxGeometry x="112.5" y="780" width="60" height="50" as="geometry" />
        </mxCell>
        <mxCell id="XptOpZLXdy9qe_FooWXW-44" style="edgeStyle=orthogonalEdgeStyle;rounded=0;orthogonalLoop=1;jettySize=auto;html=1;" edge="1" parent="1">
          <mxGeometry relative="1" as="geometry">
            <mxPoint x="50" y="190" as="sourcePoint" />
            <mxPoint x="110" y="320" as="targetPoint" />
            <Array as="points">
              <mxPoint x="50" y="320" />
            </Array>
          </mxGeometry>
        </mxCell>
        <mxCell id="XptOpZLXdy9qe_FooWXW-46" style="edgeStyle=orthogonalEdgeStyle;rounded=0;orthogonalLoop=1;jettySize=auto;html=1;" edge="1" parent="1">
          <mxGeometry relative="1" as="geometry">
            <mxPoint x="50" y="270" as="sourcePoint" />
            <mxPoint x="110" y="400" as="targetPoint" />
            <Array as="points">
              <mxPoint x="50" y="400" />
            </Array>
          </mxGeometry>
        </mxCell>
        <mxCell id="XptOpZLXdy9qe_FooWXW-47" style="edgeStyle=orthogonalEdgeStyle;rounded=0;orthogonalLoop=1;jettySize=auto;html=1;" edge="1" parent="1">
          <mxGeometry relative="1" as="geometry">
            <mxPoint x="50" y="360" as="sourcePoint" />
            <mxPoint x="110" y="490" as="targetPoint" />
            <Array as="points">
              <mxPoint x="50" y="490" />
            </Array>
          </mxGeometry>
        </mxCell>
        <mxCell id="XptOpZLXdy9qe_FooWXW-48" style="edgeStyle=orthogonalEdgeStyle;rounded=0;orthogonalLoop=1;jettySize=auto;html=1;" edge="1" parent="1">
          <mxGeometry relative="1" as="geometry">
            <mxPoint x="50" y="440" as="sourcePoint" />
            <mxPoint x="110" y="570" as="targetPoint" />
            <Array as="points">
              <mxPoint x="50" y="570" />
            </Array>
          </mxGeometry>
        </mxCell>
        <mxCell id="XptOpZLXdy9qe_FooWXW-49" style="edgeStyle=orthogonalEdgeStyle;rounded=0;orthogonalLoop=1;jettySize=auto;html=1;" edge="1" parent="1">
          <mxGeometry relative="1" as="geometry">
            <mxPoint x="50" y="510" as="sourcePoint" />
            <mxPoint x="110" y="640" as="targetPoint" />
            <Array as="points">
              <mxPoint x="50" y="640" />
            </Array>
          </mxGeometry>
        </mxCell>
        <mxCell id="XptOpZLXdy9qe_FooWXW-50" style="edgeStyle=orthogonalEdgeStyle;rounded=0;orthogonalLoop=1;jettySize=auto;html=1;" edge="1" parent="1">
          <mxGeometry relative="1" as="geometry">
            <mxPoint x="50" y="590" as="sourcePoint" />
            <mxPoint x="110" y="720" as="targetPoint" />
            <Array as="points">
              <mxPoint x="50" y="720" />
            </Array>
          </mxGeometry>
        </mxCell>
        <mxCell id="XptOpZLXdy9qe_FooWXW-51" style="edgeStyle=orthogonalEdgeStyle;rounded=0;orthogonalLoop=1;jettySize=auto;html=1;" edge="1" parent="1">
          <mxGeometry relative="1" as="geometry">
            <mxPoint x="50" y="670" as="sourcePoint" />
            <mxPoint x="110" y="800" as="targetPoint" />
            <Array as="points">
              <mxPoint x="50" y="800" />
            </Array>
          </mxGeometry>
        </mxCell>
        <mxCell id="XptOpZLXdy9qe_FooWXW-57" value="var" style="text;html=1;align=center;verticalAlign=middle;whiteSpace=wrap;rounded=0;" vertex="1" parent="1">
          <mxGeometry x="60" y="220" width="60" height="30" as="geometry" />
        </mxCell>
        <mxCell id="XptOpZLXdy9qe_FooWXW-58" value="=" style="text;html=1;align=center;verticalAlign=middle;whiteSpace=wrap;rounded=0;" vertex="1" parent="1">
          <mxGeometry x="47.5" y="290" width="60" height="30" as="geometry" />
        </mxCell>
        <mxCell id="XptOpZLXdy9qe_FooWXW-59" value="+" style="text;html=1;align=center;verticalAlign=middle;whiteSpace=wrap;rounded=0;" vertex="1" parent="1">
          <mxGeometry x="50" y="370" width="60" height="30" as="geometry" />
        </mxCell>
        <mxCell id="XptOpZLXdy9qe_FooWXW-62" value="-" style="text;html=1;align=center;verticalAlign=middle;whiteSpace=wrap;rounded=0;" vertex="1" parent="1">
          <mxGeometry x="50" y="460" width="60" height="30" as="geometry" />
        </mxCell>
        <mxCell id="XptOpZLXdy9qe_FooWXW-65" value="*" style="text;html=1;align=center;verticalAlign=middle;whiteSpace=wrap;rounded=0;" vertex="1" parent="1">
          <mxGeometry x="47.5" y="540" width="60" height="30" as="geometry" />
        </mxCell>
        <mxCell id="XptOpZLXdy9qe_FooWXW-66" value="/" style="text;html=1;align=center;verticalAlign=middle;whiteSpace=wrap;rounded=0;" vertex="1" parent="1">
          <mxGeometry x="47.5" y="610" width="60" height="30" as="geometry" />
        </mxCell>
        <mxCell id="XptOpZLXdy9qe_FooWXW-72" value="^" style="text;html=1;align=center;verticalAlign=middle;whiteSpace=wrap;rounded=0;" vertex="1" parent="1">
          <mxGeometry x="47.5" y="690" width="60" height="30" as="geometry" />
        </mxCell>
        <mxCell id="XptOpZLXdy9qe_FooWXW-74" value="(" style="text;html=1;align=center;verticalAlign=middle;whiteSpace=wrap;rounded=0;" vertex="1" parent="1">
          <mxGeometry x="47.5" y="770" width="60" height="30" as="geometry" />
        </mxCell>
        <mxCell id="XptOpZLXdy9qe_FooWXW-80" value="" style="ellipse;whiteSpace=wrap;html=1;" vertex="1" parent="1">
          <mxGeometry x="105" y="850" width="70" height="70" as="geometry" />
        </mxCell>
        <mxCell id="XptOpZLXdy9qe_FooWXW-81" value="20" style="ellipse;whiteSpace=wrap;html=1;" vertex="1" parent="1">
          <mxGeometry x="110" y="860" width="60" height="50" as="geometry" />
        </mxCell>
        <mxCell id="XptOpZLXdy9qe_FooWXW-82" value="" style="ellipse;whiteSpace=wrap;html=1;" vertex="1" parent="1">
          <mxGeometry x="102.5" y="930" width="70" height="70" as="geometry" />
        </mxCell>
        <mxCell id="XptOpZLXdy9qe_FooWXW-83" value="21" style="ellipse;whiteSpace=wrap;html=1;" vertex="1" parent="1">
          <mxGeometry x="107.5" y="940" width="60" height="50" as="geometry" />
        </mxCell>
        <mxCell id="XptOpZLXdy9qe_FooWXW-84" style="edgeStyle=orthogonalEdgeStyle;rounded=0;orthogonalLoop=1;jettySize=auto;html=1;" edge="1" parent="1">
          <mxGeometry relative="1" as="geometry">
            <mxPoint x="50" y="750" as="sourcePoint" />
            <mxPoint x="110" y="880" as="targetPoint" />
            <Array as="points">
              <mxPoint x="50" y="880" />
            </Array>
          </mxGeometry>
        </mxCell>
        <mxCell id="XptOpZLXdy9qe_FooWXW-85" style="edgeStyle=orthogonalEdgeStyle;rounded=0;orthogonalLoop=1;jettySize=auto;html=1;" edge="1" parent="1">
          <mxGeometry relative="1" as="geometry">
            <mxPoint x="50" y="840" as="sourcePoint" />
            <mxPoint x="110" y="970" as="targetPoint" />
            <Array as="points">
              <mxPoint x="50" y="970" />
            </Array>
          </mxGeometry>
        </mxCell>
        <mxCell id="XptOpZLXdy9qe_FooWXW-86" value=")" style="text;html=1;align=center;verticalAlign=middle;whiteSpace=wrap;rounded=0;" vertex="1" parent="1">
          <mxGeometry x="50" y="850" width="60" height="30" as="geometry" />
        </mxCell>
        <mxCell id="XptOpZLXdy9qe_FooWXW-87" value="otro" style="text;html=1;align=center;verticalAlign=middle;whiteSpace=wrap;rounded=0;" vertex="1" parent="1">
          <mxGeometry x="50" y="930" width="60" height="30" as="geometry" />
        </mxCell>
        <mxCell id="XptOpZLXdy9qe_FooWXW-88" value="" style="endArrow=classic;html=1;rounded=0;exitX=0.908;exitY=0.391;exitDx=0;exitDy=0;exitPerimeter=0;entryX=0.005;entryY=0.625;entryDx=0;entryDy=0;entryPerimeter=0;" edge="1" parent="1" source="XptOpZLXdy9qe_FooWXW-32" target="XptOpZLXdy9qe_FooWXW-96">
          <mxGeometry width="50" height="50" relative="1" as="geometry">
            <mxPoint x="180" y="640" as="sourcePoint" />
            <mxPoint x="270" y="640" as="targetPoint" />
            <Array as="points">
              <mxPoint x="200" y="670" />
            </Array>
          </mxGeometry>
        </mxCell>
        <mxCell id="XptOpZLXdy9qe_FooWXW-89" value="digito" style="text;html=1;align=center;verticalAlign=middle;whiteSpace=wrap;rounded=0;" vertex="1" parent="1">
          <mxGeometry x="130" y="60" width="60" height="30" as="geometry" />
        </mxCell>
        <mxCell id="XptOpZLXdy9qe_FooWXW-94" value="todo" style="text;html=1;align=center;verticalAlign=middle;whiteSpace=wrap;rounded=0;" vertex="1" parent="1">
          <mxGeometry x="190" y="590" width="60" height="30" as="geometry" />
        </mxCell>
        <mxCell id="XptOpZLXdy9qe_FooWXW-96" value="7" style="ellipse;whiteSpace=wrap;html=1;" vertex="1" parent="1">
          <mxGeometry x="290" y="640" width="60" height="50" as="geometry" />
        </mxCell>
        <mxCell id="XptOpZLXdy9qe_FooWXW-97" value="" style="endArrow=classic;html=1;rounded=0;" edge="1" parent="1">
          <mxGeometry width="50" height="50" relative="1" as="geometry">
            <mxPoint x="170" y="640" as="sourcePoint" />
            <mxPoint x="270" y="610" as="targetPoint" />
          </mxGeometry>
        </mxCell>
        <mxCell id="XptOpZLXdy9qe_FooWXW-98" value="16" style="ellipse;whiteSpace=wrap;html=1;" vertex="1" parent="1">
          <mxGeometry x="270" y="560" width="60" height="50" as="geometry" />
        </mxCell>
        <mxCell id="XptOpZLXdy9qe_FooWXW-99" value="/" style="text;html=1;align=center;verticalAlign=middle;whiteSpace=wrap;rounded=0;" vertex="1" parent="1">
          <mxGeometry x="220" y="650" width="60" height="30" as="geometry" />
        </mxCell>
        <mxCell id="XptOpZLXdy9qe_FooWXW-101" value="" style="endArrow=classic;html=1;rounded=0;" edge="1" parent="1">
          <mxGeometry width="50" height="50" relative="1" as="geometry">
            <mxPoint x="350" y="670" as="sourcePoint" />
            <mxPoint x="440" y="670" as="targetPoint" />
          </mxGeometry>
        </mxCell>
        <mxCell id="XptOpZLXdy9qe_FooWXW-102" value="17" style="ellipse;whiteSpace=wrap;html=1;" vertex="1" parent="1">
          <mxGeometry x="445" y="640" width="60" height="50" as="geometry" />
        </mxCell>
        <mxCell id="XptOpZLXdy9qe_FooWXW-105" value="/n" style="text;html=1;align=center;verticalAlign=middle;whiteSpace=wrap;rounded=0;" vertex="1" parent="1">
          <mxGeometry x="360" y="640" width="60" height="30" as="geometry" />
        </mxCell>
        <mxCell id="XptOpZLXdy9qe_FooWXW-106" value="." style="text;html=1;align=center;verticalAlign=middle;whiteSpace=wrap;rounded=0;" vertex="1" parent="1">
          <mxGeometry x="220" y="120" width="60" height="30" as="geometry" />
        </mxCell>
        <mxCell id="XptOpZLXdy9qe_FooWXW-108" value="" style="curved=1;endArrow=classic;html=1;rounded=0;exitX=0.151;exitY=0.29;exitDx=0;exitDy=0;exitPerimeter=0;entryX=1;entryY=0;entryDx=0;entryDy=0;" edge="1" parent="1" source="XptOpZLXdy9qe_FooWXW-2" target="XptOpZLXdy9qe_FooWXW-2">
          <mxGeometry width="50" height="50" relative="1" as="geometry">
            <mxPoint x="210" y="100" as="sourcePoint" />
            <mxPoint x="260" y="90" as="targetPoint" />
            <Array as="points">
              <mxPoint x="190" y="90" />
              <mxPoint x="210" y="40" />
              <mxPoint x="230" y="30" />
            </Array>
          </mxGeometry>
        </mxCell>
        <mxCell id="XptOpZLXdy9qe_FooWXW-109" value="" style="curved=1;endArrow=classic;html=1;rounded=0;exitX=0.151;exitY=0.29;exitDx=0;exitDy=0;exitPerimeter=0;entryX=1;entryY=0;entryDx=0;entryDy=0;" edge="1" parent="1" target="XptOpZLXdy9qe_FooWXW-4">
          <mxGeometry width="50" height="50" relative="1" as="geometry">
            <mxPoint x="394" y="145" as="sourcePoint" />
            <mxPoint x="436" y="137" as="targetPoint" />
            <Array as="points">
              <mxPoint x="375" y="150" />
              <mxPoint x="395" y="100" />
              <mxPoint x="415" y="90" />
            </Array>
          </mxGeometry>
        </mxCell>
        <mxCell id="XptOpZLXdy9qe_FooWXW-110" value="todo" style="text;html=1;align=center;verticalAlign=middle;whiteSpace=wrap;rounded=0;" vertex="1" parent="1">
          <mxGeometry x="330" y="620" width="60" height="30" as="geometry" />
        </mxCell>
        <mxCell id="XptOpZLXdy9qe_FooWXW-111" value="" style="curved=1;endArrow=classic;html=1;rounded=0;" edge="1" parent="1">
          <mxGeometry width="50" height="50" relative="1" as="geometry">
            <mxPoint x="300" y="650" as="sourcePoint" />
            <mxPoint x="346" y="650" as="targetPoint" />
            <Array as="points">
              <mxPoint x="290" y="670" />
              <mxPoint x="300" y="630" />
              <mxPoint x="330" y="610" />
            </Array>
          </mxGeometry>
        </mxCell>
        <mxCell id="XptOpZLXdy9qe_FooWXW-112" value="digito" style="text;html=1;align=center;verticalAlign=middle;whiteSpace=wrap;rounded=0;" vertex="1" parent="1">
          <mxGeometry x="210" y="20" width="60" height="30" as="geometry" />
        </mxCell>
        <mxCell id="XptOpZLXdy9qe_FooWXW-113" value="todo" style="text;html=1;align=center;verticalAlign=middle;whiteSpace=wrap;rounded=0;" vertex="1" parent="1">
          <mxGeometry x="265" y="60" width="60" height="30" as="geometry" />
        </mxCell>
        <mxCell id="XptOpZLXdy9qe_FooWXW-114" value="digito" style="text;html=1;align=center;verticalAlign=middle;whiteSpace=wrap;rounded=0;" vertex="1" parent="1">
          <mxGeometry x="315" y="140" width="60" height="30" as="geometry" />
        </mxCell>
        <mxCell id="XptOpZLXdy9qe_FooWXW-115" value="digito" style="text;html=1;align=center;verticalAlign=middle;whiteSpace=wrap;rounded=0;" vertex="1" parent="1">
          <mxGeometry x="420" y="80" width="60" height="30" as="geometry" />
        </mxCell>
        <mxCell id="XptOpZLXdy9qe_FooWXW-118" value="todo" style="text;html=1;align=center;verticalAlign=middle;whiteSpace=wrap;rounded=0;" vertex="1" parent="1">
          <mxGeometry x="440" y="130" width="60" height="30" as="geometry" />
        </mxCell>
        <mxCell id="XptOpZLXdy9qe_FooWXW-119" value="" style="endArrow=classic;html=1;rounded=0;exitX=1.051;exitY=0.341;exitDx=0;exitDy=0;exitPerimeter=0;" edge="1" parent="1" source="XptOpZLXdy9qe_FooWXW-28">
          <mxGeometry width="50" height="50" relative="1" as="geometry">
            <mxPoint x="200" y="470" as="sourcePoint" />
            <mxPoint x="260" y="440" as="targetPoint" />
          </mxGeometry>
        </mxCell>
        <mxCell id="XptOpZLXdy9qe_FooWXW-120" value="" style="endArrow=classic;html=1;rounded=0;exitX=1.032;exitY=0.72;exitDx=0;exitDy=0;exitPerimeter=0;" edge="1" parent="1" source="XptOpZLXdy9qe_FooWXW-28">
          <mxGeometry width="50" height="50" relative="1" as="geometry">
            <mxPoint x="260" y="480" as="sourcePoint" />
            <mxPoint x="250" y="500" as="targetPoint" />
          </mxGeometry>
        </mxCell>
        <mxCell id="XptOpZLXdy9qe_FooWXW-121" value="todo" style="text;html=1;align=center;verticalAlign=middle;whiteSpace=wrap;rounded=0;" vertex="1" parent="1">
          <mxGeometry x="177.5" y="440" width="60" height="30" as="geometry" />
        </mxCell>
        <mxCell id="XptOpZLXdy9qe_FooWXW-122" value="" style="ellipse;whiteSpace=wrap;html=1;" vertex="1" parent="1">
          <mxGeometry x="260" y="390" width="70" height="70" as="geometry" />
        </mxCell>
        <mxCell id="XptOpZLXdy9qe_FooWXW-123" value="13" style="ellipse;whiteSpace=wrap;html=1;" vertex="1" parent="1">
          <mxGeometry x="265" y="400" width="60" height="50" as="geometry" />
        </mxCell>
        <mxCell id="XptOpZLXdy9qe_FooWXW-124" value="b" style="text;html=1;align=center;verticalAlign=middle;whiteSpace=wrap;rounded=0;" vertex="1" parent="1">
          <mxGeometry x="60" y="40" width="60" height="30" as="geometry" />
        </mxCell>
        <mxCell id="XptOpZLXdy9qe_FooWXW-126" value="5" style="ellipse;whiteSpace=wrap;html=1;" vertex="1" parent="1">
          <mxGeometry x="260" y="480" width="60" height="50" as="geometry" />
        </mxCell>
        <mxCell id="XptOpZLXdy9qe_FooWXW-130" value="digito" style="text;html=1;align=center;verticalAlign=middle;whiteSpace=wrap;rounded=0;" vertex="1" parent="1">
          <mxGeometry x="190" y="470" width="60" height="30" as="geometry" />
        </mxCell>
        <mxCell id="XptOpZLXdy9qe_FooWXW-135" value="14" style="ellipse;whiteSpace=wrap;html=1;" vertex="1" parent="1">
          <mxGeometry x="395" y="490" width="60" height="50" as="geometry" />
        </mxCell>
        <mxCell id="XptOpZLXdy9qe_FooWXW-138" value="" style="curved=1;endArrow=classic;html=1;rounded=0;exitX=0.054;exitY=0.305;exitDx=0;exitDy=0;exitPerimeter=0;" edge="1" parent="1" source="XptOpZLXdy9qe_FooWXW-126">
          <mxGeometry width="50" height="50" relative="1" as="geometry">
            <mxPoint x="274" y="495" as="sourcePoint" />
            <mxPoint x="320" y="495" as="targetPoint" />
            <Array as="points">
              <mxPoint x="264" y="515" />
              <mxPoint x="274" y="475" />
              <mxPoint x="304" y="455" />
            </Array>
          </mxGeometry>
        </mxCell>
        <mxCell id="XptOpZLXdy9qe_FooWXW-139" value="digito" style="text;html=1;align=center;verticalAlign=middle;whiteSpace=wrap;rounded=0;" vertex="1" parent="1">
          <mxGeometry x="237.5" y="460" width="60" height="30" as="geometry" />
        </mxCell>
        <mxCell id="XptOpZLXdy9qe_FooWXW-141" value="" style="endArrow=classic;html=1;rounded=0;exitX=1;exitY=0.5;exitDx=0;exitDy=0;entryX=0;entryY=0.5;entryDx=0;entryDy=0;" edge="1" parent="1" source="XptOpZLXdy9qe_FooWXW-126" target="XptOpZLXdy9qe_FooWXW-135">
          <mxGeometry width="50" height="50" relative="1" as="geometry">
            <mxPoint x="270" y="630" as="sourcePoint" />
            <mxPoint x="320" y="580" as="targetPoint" />
          </mxGeometry>
        </mxCell>
        <mxCell id="XptOpZLXdy9qe_FooWXW-142" value="todo" style="text;html=1;align=center;verticalAlign=middle;whiteSpace=wrap;rounded=0;" vertex="1" parent="1">
          <mxGeometry x="320" y="480" width="60" height="30" as="geometry" />
        </mxCell>
      </root>
    </mxGraphModel>
  </diagram>
</mxfile>
